<?xml version="1.0" encoding="utf-8"?>
<!-- Generator: Adobe Illustrator 16.0.3, SVG Export Plug-In . SVG Version: 6.00 Build 0)  -->
<!DOCTYPE svg PUBLIC "-//W3C//DTD SVG 1.1//EN" "http://www.w3.org/Graphics/SVG/1.1/DTD/svg11.dtd">
<svg version="1.1" id="Layer_1" xmlns="http://www.w3.org/2000/svg" xmlns:xlink="http://www.w3.org/1999/xlink" x="0px" y="0px"
	 width="300px" height="300px" viewBox="0 0 300 300" enable-background="new 0 0 300 300" xml:space="preserve">
<g>
	<path fill="#CCD8C7" d="M172.049,122.18c-7.227-1.352-14.512-1.16,3.621-14.506c18.132-13.345,76.733-30.316,100.813-23.789
		c6.092,2.031,6.237,5.513,2.176,11.025c-4.062,5.512-20.163,19.727-40.76,27.27C212.188,130.013,181.942,123.539,172.049,122.18z"
		/>
	<path fill="#CCD8C7" d="M166.038,128.436c9.273-1.424,62.771,3.046,80.396,17.842c17.624,14.796,7.507,16.318,3.155,17.406
		s-27.088,1.414-38.349-2.502C199.98,157.265,157.015,131.111,166.038,128.436"/>
</g>
</svg>
