<?xml version="1.0" encoding="utf-8"?>
<!-- Generator: Adobe Illustrator 16.0.3, SVG Export Plug-In . SVG Version: 6.00 Build 0)  -->
<!DOCTYPE svg PUBLIC "-//W3C//DTD SVG 1.1//EN" "http://www.w3.org/Graphics/SVG/1.1/DTD/svg11.dtd">
<svg version="1.1" id="Layer_1" xmlns="http://www.w3.org/2000/svg" xmlns:xlink="http://www.w3.org/1999/xlink" x="0px" y="0px"
	 width="300px" height="300px" viewBox="0 0 300 300" enable-background="new 0 0 300 300" xml:space="preserve">
<g>
	<circle fill="#D5C6B2" cx="150.111" cy="83.885" r="12.85"/>
	<path fill="#CCD8C7" d="M129.205,122.18c7.227-1.351,14.512-1.16-3.62-14.505S48.851,77.358,24.772,83.885
		c-6.093,2.031-6.237,5.512-2.177,11.024c4.062,5.512,20.164,19.728,40.761,27.27C89.068,130.013,119.312,123.54,129.205,122.18z"/>
	<path fill="#CCD8C7" d="M172.049,122.18c-7.227-1.351-14.512-1.16,3.621-14.505c18.132-13.345,76.733-30.316,100.813-23.789
		c6.092,2.031,6.237,5.512,2.176,11.024c-4.062,5.512-20.163,19.728-40.76,27.27C212.188,130.013,181.942,123.54,172.049,122.18z"/>
	<path fill="#CCD8C7" d="M134.668,128.435c-9.273-1.423-62.771,3.046-80.396,17.842c-17.624,14.796-7.507,16.319-3.155,17.407
		s27.087,1.414,38.348-2.502C100.727,157.265,143.691,131.112,134.668,128.435"/>
	<path fill="#CCD8C7" d="M166.038,128.435c9.273-1.423,62.771,3.046,80.396,17.842c17.624,14.796,7.507,16.319,3.155,17.407
		s-27.088,1.414-38.349-2.502C199.98,157.265,157.015,131.112,166.038,128.435"/>
	<path fill="#D5C6B2" d="M150.111,100.313c-13.793,0-8.715,12.837-7.52,36.771c1.197,23.933,0.768,70.143,1.688,78.928
		c1.324,12.638,2.254,12.705,5.832,12.782c4.194,0.091,5.138-0.435,5.754-31.006c0.692-34.375,2.067-61.684,2.611-69.082
		C159.02,121.31,163.734,100.313,150.111,100.313z"/>
</g>
</svg>
